<svg xmlns="http://www.w3.org/2000/svg" width="600" height="400" viewBox="0 0 600 400" role="img" aria-label="Ncgift">
  <defs>
    <linearGradient id="bg" x1="0" y1="0" x2="1" y2="1">
      <stop offset="0" stop-color="#101014"/>
      <stop offset="1" stop-color="#0a0a0a"/>
    </linearGradient>
    <linearGradient id="acc" x1="0" y1="0" x2="1" y2="1">
      <stop offset="0" stop-color="#9db8ff"/>
      <stop offset="1" stop-color="#4d6bfe"/>
    </linearGradient>
    <pattern id="grid" width="28" height="28" patternUnits="userSpaceOnUse">
      <circle cx="2" cy="2" r="1.4" fill="#6799fe" opacity="0.12"/>
    </pattern>
  </defs>
  <rect width="600" height="400" fill="url(#bg)"/>
  <rect width="600" height="400" fill="url(#grid)"/>
  <rect x="0.5" y="0.5" width="599" height="399" fill="none" stroke="#6799fe" stroke-opacity="0.18"/>
  <text x="588" y="356" text-anchor="end" font-family="Fragment Mono,ui-monospace,monospace" font-size="90" font-weight="700" opacity="0.05" fill="#9db8ff" transform="rotate(-8 460 356)">NC</text>
  <rect x="24" y="20" width="552" height="44" rx="10" fill="#16161c" stroke="#6799fe" stroke-opacity="0.25"/>
  <circle cx="44" cy="42" r="5.5" fill="#ff6e42" opacity="0.7"/>
  <circle cx="62" cy="42" r="5.5" fill="#f2c14e" opacity="0.7"/>
  <circle cx="80" cy="42" r="5.5" fill="#4dbf6e" opacity="0.7"/>
  <rect x="104" y="32" width="170" height="20" rx="10" fill="#20212b"/>
  <rect x="40" y="92" width="520" height="192" rx="14" fill="#121218" stroke="#6799fe" stroke-opacity="0.3" stroke-dasharray="7 7"/>
  <rect x="214" y="112" width="172" height="118" rx="12" fill="none" stroke="url(#acc)" stroke-width="3"/>
  <circle cx="300" cy="171" r="42" fill="none" stroke="#9db8ff" stroke-width="3" stroke-dasharray="6 6"/>
  <path d="M214 122c22 26 122 26 144 0M214 220c22-26 122-26 144 0" fill="none" stroke="#4d6bfe" stroke-width="3"/>
  <text x="300" y="180" text-anchor="middle" font-family="Fragment Mono,ui-monospace,monospace" font-size="26" font-weight="700" fill="#ffffff">$</text>
  <rect x="258" y="252" width="84" height="22" rx="11" fill="#6799fe" opacity="0.22"/>
  <text x="300" y="267" text-anchor="middle" font-family="Fragment Mono,ui-monospace,monospace" font-size="11" letter-spacing="1" fill="#9db8ff">GIFT CARD</text>
  <text x="40" y="326" font-family="DM Sans,system-ui,sans-serif" font-size="27" font-weight="700" fill="#ffffff">Ncgift</text>
  <text x="40" y="352" font-family="DM Sans,system-ui,sans-serif" font-size="15" fill="#9db8ff">NC Gift Cards · Epson fiscal · .NET</text>
  <rect x="40" y="366" width="110" height="20" rx="10" fill="#6799fe" opacity="0.14"/>
  <text x="95" y="381" text-anchor="middle" font-family="Fragment Mono,ui-monospace,monospace" font-size="10" letter-spacing="1" fill="#8aa7ff">VISTA PREVIA</text>
</svg>